<?xml version="1.0" standalone="no"?>
<!DOCTYPE svg PUBLIC "-//W3C//DTD SVG 20010904//EN"
 "http://www.w3.org/TR/2001/REC-SVG-20010904/DTD/svg10.dtd">
<svg version="1.0" xmlns="http://www.w3.org/2000/svg"
 width="300.000000pt" height="206.000000pt" viewBox="0 0 300.000000 206.000000"
 preserveAspectRatio="xMidYMid meet">
<metadata>
Created by potrace 1.10, written by Peter Selinger 2001-2011
</metadata>
<g transform="translate(0.000000,206.000000) scale(0.100000,-0.100000)"
fill="#000000" stroke="none">
<path d="M475 1101 c-92 -42 -145 -119 -145 -211 0 -129 106 -230 240 -230 56
0 140 30 140 50 0 13 -1 13 -51 -10 -52 -23 -129 -26 -167 -6 -119 62 -144
249 -48 354 50 56 119 66 208 32 55 -21 76 -18 43 6 -50 37 -157 44 -220 15z"/>
<path d="M1795 1113 c-91 -19 -145 -64 -145 -120 0 -59 46 -93 187 -138 91
-28 110 -40 118 -75 8 -33 -25 -77 -71 -96 -43 -18 -121 -18 -173 1 -22 8 -41
10 -41 5 0 -13 96 -40 139 -40 99 0 181 57 181 125 0 55 -37 83 -171 130 -127
45 -146 62 -127 117 21 59 118 92 196 65 23 -8 44 -11 47 -7 10 17 -98 42
-140 33z"/>
<path d="M810 885 l0 -225 75 -2 c41 -1 82 -2 90 -2 8 -1 14 4 13 9 -2 6 -32
10 -68 10 l-65 0 -3 102 -3 102 56 -6 c48 -5 55 -4 55 12 0 15 -7 16 -55 10
l-55 -6 0 100 0 101 75 0 c43 0 75 4 75 10 0 6 -38 10 -95 10 l-95 0 0 -225z"/>
<path d="M1091 885 l0 -225 67 0 c37 0 77 -3 90 -6 17 -5 22 -2 22 11 0 16 -7
17 -65 11 l-65 -7 0 221 0 220 -24 0 -24 0 -1 -225z"/>
<path d="M1370 885 l0 -225 80 -1 c44 -1 85 -2 90 -3 6 -1 9 4 8 9 -2 6 -32 9
-70 8 l-68 -2 0 104 0 104 55 -6 c47 -5 55 -3 55 11 0 14 -8 15 -55 10 l-55
-7 0 102 0 101 75 0 c43 0 75 4 75 10 0 6 -38 10 -95 10 l-95 0 0 -225z"/>
<path d="M2050 1100 c0 -6 28 -10 65 -10 l65 0 0 -215 c0 -208 1 -215 20 -215
19 0 20 7 20 215 l0 215 64 0 c36 0 68 5 71 10 4 7 -48 10 -149 10 -97 0 -156
-4 -156 -10z"/>
<path d="M2450 885 l0 -225 75 -2 c41 -1 82 -2 90 -2 8 -1 15 4 15 9 0 6 -30
10 -68 10 l-67 0 0 100 0 100 53 -3 c41 -3 52 -1 52 11 0 13 -10 15 -55 10
l-55 -6 0 102 0 101 75 0 c43 0 75 4 75 10 0 6 -38 10 -95 10 l-95 0 0 -225z"/>
</g>
</svg>
